<svg width="32" height="33" viewBox="0 0 32 33" fill="none" xmlns="http://www.w3.org/2000/svg">
<path d="M28 22.7366V27.4514C28 28.1514 27.4588 28.7322 26.7607 28.7815C26.1775 28.8227 25.7017 28.8433 25.3333 28.8433C13.5512 28.8433 4 19.2921 4 7.50993C4 7.14154 4.0206 6.66576 4.0618 6.0826C4.11116 5.38444 4.69192 4.84326 5.39181 4.84326H10.1068C10.449 4.84326 10.7357 5.10249 10.77 5.443C10.8009 5.74869 10.8296 5.99411 10.8561 6.17929C11.1258 8.06289 11.6767 9.85574 12.4649 11.514C12.5915 11.7801 12.5089 12.0987 12.2691 12.27L9.3914 14.3257C11.1434 18.4181 14.4252 21.6999 18.5176 23.4519L20.5695 20.5791C20.7429 20.3365 21.0653 20.253 21.3347 20.3809C22.9928 21.1685 24.7855 21.7187 26.6688 21.9878C26.8528 22.0142 27.0967 22.0426 27.4003 22.0733C27.7408 22.1077 28 22.3943 28 22.7366Z" fill="#F7F7F7"/>
</svg>
