<svg width="111" height="55" viewBox="0 0 111 55" fill="none" xmlns="http://www.w3.org/2000/svg">
<path fill-rule="evenodd" clip-rule="evenodd" d="M64.8757 6.8042H57.7351V38.4708L64.8757 31.2723V6.8042ZM91.7368 0H84.5962V5.22686H91.7368V0ZM110.093 32.4166V12.8159C110.093 10.5504 109.337 8.9202 107.827 7.92534C106.557 7.06709 104.652 6.63796 102.113 6.63796C99.5745 6.63796 97.6015 7.0323 96.1943 7.82096C94.4417 8.81582 93.5667 10.3906 93.5693 12.5452V18.3443H100.528V12.6342C100.513 12.4413 100.537 12.2473 100.597 12.0635C100.657 11.8797 100.753 11.7097 100.88 11.5633C100.99 11.4483 101.122 11.3571 101.268 11.2952C101.414 11.2334 101.572 11.2022 101.73 11.2037C101.899 11.1921 102.067 11.2184 102.224 11.2806C102.38 11.3428 102.521 11.4394 102.635 11.5633C102.858 11.8754 102.965 12.2556 102.937 12.638V16.937C102.937 17.553 101.331 18.6329 98.1196 20.1768C94.9082 21.7206 93.3025 23.6536 93.3025 25.9758V31.8444C93.3025 33.3908 93.7497 34.5403 94.644 35.2929C95.5384 36.0455 97.0538 36.4321 99.1905 36.4527C100.202 36.4823 101.214 36.3862 102.202 36.1666C102.54 36.0807 102.856 35.9229 103.127 35.7041C103.399 35.4853 103.62 35.2105 103.776 34.8986V38.4592L110.093 32.4166ZM102.952 30.5493C102.965 30.7296 102.942 30.9107 102.885 31.082C102.827 31.2532 102.735 31.4113 102.616 31.5467C102.502 31.6565 102.368 31.7425 102.22 31.7996C102.073 31.8567 101.915 31.8837 101.758 31.8792C101.584 31.8901 101.409 31.8663 101.245 31.8092C101.08 31.7522 100.929 31.6629 100.799 31.5467C100.677 31.4126 100.584 31.2548 100.525 31.0833C100.467 30.9117 100.444 30.73 100.459 30.5493V25.2799C100.449 25.0342 100.49 24.7892 100.58 24.5602C100.67 24.3313 100.806 24.1236 100.98 23.95C101.323 23.6072 101.98 23.316 102.952 23.0763V30.5493ZM25.8134 7.90215C24.7843 7.04164 23.4736 6.59144 22.1329 6.63796C21.0554 6.64976 19.9929 6.89232 19.0169 7.34931C17.9679 7.82096 17.2901 8.24107 16.9834 8.60963C16.504 8.22303 15.9357 7.71658 15.2823 7.14441C14.7334 6.80678 13.7888 6.63796 12.4485 6.63796C11.5684 6.63136 10.692 6.75247 9.84672 6.9975C9.18725 7.16615 8.56642 7.46017 8.01809 7.86349V6.8042H0.877547V38.4553L8.01422 31.2761V12.5762C7.99919 12.4005 8.01913 12.2237 8.07288 12.0558C8.12663 11.8879 8.21313 11.7323 8.32737 11.5981C8.45444 11.4874 8.60224 11.403 8.76218 11.3499C8.92213 11.2968 9.09103 11.276 9.25908 11.2888C10.089 11.2888 10.5039 11.736 10.5039 12.6303V36.0313C10.5039 36.0313 10.5039 38.4515 10.5039 38.4631L17.6367 31.2839V12.58C17.6214 12.4038 17.6412 12.2262 17.6949 12.0577C17.7487 11.8891 17.8354 11.7329 17.9499 11.5981C18.077 11.4874 18.2248 11.403 18.3847 11.3499C18.5447 11.2968 18.7136 11.276 18.8816 11.2888C19.7115 11.2888 20.1265 11.736 20.1265 12.6303V38.4437L27.2709 31.2955V10.8597C27.2656 10.2881 27.131 9.72514 26.8772 9.21296C26.6235 8.70079 26.2572 8.25266 25.8057 7.90215M45.9863 32.4166V12.8159C45.9863 10.5504 45.2324 8.9202 43.7247 7.92534C42.4515 7.06709 40.5468 6.63796 38.0107 6.63796C35.4746 6.63796 33.5016 7.0323 32.0918 7.82096C30.3418 8.81582 29.4668 10.3906 29.4668 12.5452V18.3443H36.4256V12.6342C36.4107 12.4413 36.434 12.2473 36.4944 12.0635C36.5548 11.8797 36.651 11.7097 36.7774 11.5633C36.8875 11.4478 37.0201 11.3563 37.1671 11.2944C37.3141 11.2326 37.4723 11.2017 37.6318 11.2037C37.7993 11.1924 37.9672 11.2188 38.1231 11.2811C38.279 11.3433 38.4189 11.4397 38.5326 11.5633C38.7555 11.8754 38.8621 12.2556 38.8341 12.638V16.937C38.8341 17.553 37.2285 18.6329 34.0171 20.1768C30.8057 21.7206 29.2013 23.6536 29.2039 25.9758V31.8444C29.2039 33.3908 29.6498 34.5403 30.5415 35.2929C31.4333 36.0455 32.9539 36.4321 35.1034 36.4527C36.1153 36.4826 37.1269 36.3865 38.1151 36.1666C38.4532 36.0811 38.7689 35.9236 39.0405 35.7047C39.3121 35.4858 39.5331 35.2108 39.6885 34.8986V38.4785L45.9863 32.4166ZM38.8496 30.5493C38.8641 30.73 38.8414 30.9117 38.7828 31.0833C38.7243 31.2548 38.6313 31.4126 38.5094 31.5467C38.3971 31.6573 38.2634 31.7438 38.1165 31.801C37.9696 31.8581 37.8125 31.8848 37.655 31.8792C37.4811 31.8901 37.3068 31.8663 37.1422 31.8092C36.9776 31.7522 36.826 31.6629 36.6962 31.5467C36.5751 31.4121 36.4826 31.2543 36.4241 31.0828C36.3656 30.9114 36.3425 30.7299 36.356 30.5493V25.2799C36.3463 25.0342 36.3877 24.7892 36.4776 24.5602C36.5674 24.3313 36.7037 24.1236 36.8779 23.95C37.2233 23.6072 37.8805 23.316 38.8496 23.0763V30.5493ZM48.2015 38.4515L55.3421 31.2723V0H48.217L48.2015 38.4515ZM64.8602 0H57.7351V5.22686H64.8757L64.8602 0ZM84.5769 38.4515L91.7175 31.2723V6.8042H84.5962L84.5769 38.4515Z" fill="#635D5D"/>
<path fill-rule="evenodd" clip-rule="evenodd" d="M71.0806 38.7569L84.1671 6.81194L66.5265 6.85833V12.7772H74.1696L63.4143 38.2891L63.2558 44.2737L63.0857 44.4515H63.252L63.2442 44.5984L63.4684 44.4515L105.38 44.4786L110.769 38.7569H71.0806Z" fill="#ED7D22"/>
<path fill-rule="evenodd" clip-rule="evenodd" d="M5.36604 38.7569L0 44.4515L57.7352 44.4786L63.1244 38.7569H5.36604Z" fill="#ED7D22"/>
<path fill-rule="evenodd" clip-rule="evenodd" d="M35.548 49.1642H25.4964V51.0006H34.5003C35.7181 51.0006 36.5455 51.1127 36.9785 51.3292C37.1962 51.4441 37.3746 51.6214 37.491 51.8383C37.6074 52.0553 37.6564 52.302 37.6318 52.547V53.2815C37.6583 53.5272 37.6102 53.7752 37.4936 53.9931C37.3771 54.2111 37.1975 54.3888 36.9785 54.5032C36.5429 54.7197 35.713 54.8279 34.4887 54.8279H26.5789C25.3572 54.8279 24.5234 54.7248 24.0775 54.5186C23.8564 54.4118 23.6735 54.2395 23.5539 54.025C23.4342 53.8106 23.3835 53.5645 23.4087 53.3202V53.1423L25.5273 52.9026V53.9542H35.579V51.9632H26.5789C25.3727 51.9632 24.5492 51.8588 24.1046 51.6423C23.8817 51.5293 23.6984 51.3512 23.5789 51.1317C23.4595 50.9121 23.4096 50.6615 23.4358 50.4129V49.8446C23.4076 49.5952 23.4561 49.3432 23.575 49.1222C23.6938 48.9011 23.8772 48.7216 24.1007 48.6075C24.5453 48.3949 25.3727 48.2905 26.5711 48.2905H34.2761C35.1017 48.2463 35.9286 48.347 36.7194 48.5882C36.9441 48.6726 37.1355 48.8273 37.2651 49.0294C37.3947 49.2314 37.4555 49.4699 37.4385 49.7093V49.8485L35.5287 50.1152V49.1642" fill="#635D5D"/>
<path fill-rule="evenodd" clip-rule="evenodd" d="M43.427 54.8279V48.2905H45.6693V54.8279H43.427Z" fill="#635D5D"/>
<path fill-rule="evenodd" clip-rule="evenodd" d="M64.3576 49.1642H53.7183V53.9542H64.346V51.9941H58.8756V51.1436H66.6077V53.2699C66.6325 53.5178 66.582 53.7674 66.4626 53.986C66.3433 54.2047 66.1607 54.3823 65.9388 54.4954C65.4904 54.7119 64.6553 54.8202 63.4337 54.8202H54.6616C53.44 54.8202 52.6049 54.7119 52.1565 54.4954C51.9342 54.3838 51.7511 54.2071 51.6316 53.9889C51.5122 53.7706 51.4619 53.5212 51.4876 53.2738V49.8292C51.4628 49.5813 51.5133 49.3317 51.6327 49.113C51.752 48.8944 51.9346 48.7168 52.1565 48.6036C52.6049 48.3923 53.44 48.2853 54.6616 48.2828H63.4259C64.6115 48.2828 65.4375 48.3846 65.904 48.5882C66.1268 48.6844 66.3137 48.8481 66.4385 49.0561C66.5634 49.2642 66.6198 49.5062 66.5999 49.748V49.9142L64.3576 50.1268V49.1642Z" fill="#635D5D"/>
<path fill-rule="evenodd" clip-rule="evenodd" d="M72.4183 54.8279V48.2905H73.8216L83.939 52.663C84.4747 52.8963 84.9916 53.1703 85.4854 53.4826C85.3297 52.9612 85.2592 52.4181 85.2767 51.8743V48.2905H87.3527V54.8279H86.0924L75.6812 50.2815L75.024 49.9877C74.7709 49.869 74.5332 49.7197 74.3165 49.5431C74.4376 50.0113 74.4935 50.4939 74.4827 50.9774V54.8434H72.4067" fill="#635D5D"/>
</svg>
