<svg width="32" height="32" viewBox="0 0 32 32" fill="none" xmlns="http://www.w3.org/2000/svg">
<path d="M19.0077 28.9923L16 32L12.9922 28.9923C7.07917 27.6272 2.66663 22.3257 2.66663 16C2.66663 8.63999 8.63996 2.66666 16 2.66666C23.36 2.66666 29.3333 8.63999 29.3333 16C29.3333 22.3257 24.9208 27.6272 19.0077 28.9923ZM8.03105 20.5551C9.98773 23.4759 12.9268 25.3333 16.2129 25.3333C19.499 25.3333 22.4381 23.4759 24.3948 20.5551C22.2513 18.5563 19.3749 17.3333 16.2129 17.3333C13.0509 17.3333 10.1746 18.5563 8.03105 20.5551ZM16 14.6667C18.2092 14.6667 20 12.8758 20 10.6667C20 8.45752 18.2092 6.66666 16 6.66666C13.7908 6.66666 12 8.45752 12 10.6667C12 12.8758 13.7908 14.6667 16 14.6667Z" fill="#F7F7F7"/>
</svg>
