<svg width="24" height="25" viewBox="0 0 24 25" fill="none" xmlns="http://www.w3.org/2000/svg">
<path d="M20.9505 16.6173V20.1146C20.9505 20.6338 20.5491 21.0646 20.0312 21.1012C19.5986 21.1318 19.2458 21.147 18.9725 21.147C10.233 21.147 3.14832 14.0623 3.14832 5.32281C3.14832 5.04956 3.1636 4.69664 3.19416 4.26407C3.23077 3.74621 3.66155 3.34479 4.1807 3.34479H7.67808C7.93194 3.34479 8.14456 3.53707 8.17005 3.78964C8.19293 4.0164 8.21421 4.19844 8.23388 4.3358C8.43394 5.73297 8.84258 7.06284 9.42725 8.29284C9.5211 8.49027 9.4599 8.72658 9.28201 8.85364L7.14743 10.3784C8.44696 13.414 10.8813 15.8484 13.9169 17.1479L15.4389 15.017C15.5675 14.837 15.8067 14.7751 16.0064 14.8699C17.2364 15.4541 18.5661 15.8623 19.9631 16.0619C20.0996 16.0815 20.2805 16.1025 20.5057 16.1253C20.7582 16.1508 20.9505 16.3634 20.9505 16.6173Z" fill="#F7F7F7"/>
</svg>
