<svg width="111" height="56" viewBox="0 0 111 56" fill="none" xmlns="http://www.w3.org/2000/svg">
<path fill-rule="evenodd" clip-rule="evenodd" d="M64.9966 7.62839H57.856V39.295L64.9966 32.0964V7.62839ZM91.8577 0.824188H84.7171V6.05105H91.8577V0.824188ZM110.214 33.2408V13.6401C110.214 11.3746 109.458 9.74439 107.948 8.74953C106.677 7.89128 104.773 7.46215 102.234 7.46215C99.6954 7.46215 97.7224 7.85648 96.3152 8.64515C94.5626 9.64001 93.6876 11.2148 93.6901 13.3694V19.1685H100.649V13.4583C100.634 13.2655 100.657 13.0715 100.718 12.8877C100.778 12.7039 100.874 12.5339 101.001 12.3875C101.11 12.2725 101.242 12.1812 101.389 12.1194C101.535 12.0576 101.692 12.0264 101.851 12.0279C102.019 12.0163 102.188 12.0425 102.345 12.1048C102.501 12.167 102.642 12.2636 102.756 12.3875C102.979 12.6995 103.086 13.0797 103.058 13.4622V17.7612C103.058 18.3772 101.452 19.4571 98.2405 21.001C95.0291 22.5448 93.4234 24.4778 93.4234 26.8V32.6686C93.4234 34.215 93.8706 35.3645 94.7649 36.1171C95.6592 36.8697 97.1747 37.2563 99.3113 37.2769C100.323 37.3065 101.335 37.2104 102.323 36.9908C102.661 36.9049 102.976 36.7471 103.248 36.5283C103.519 36.3095 103.741 36.0347 103.896 35.7228V39.2834L110.214 33.2408ZM103.073 31.3735C103.086 31.5538 103.063 31.7349 103.005 31.9061C102.948 32.0774 102.856 32.2355 102.737 32.3709C102.623 32.4807 102.488 32.5667 102.341 32.6237C102.194 32.6808 102.036 32.7079 101.878 32.7034C101.705 32.7143 101.53 32.6905 101.366 32.6334C101.201 32.5763 101.049 32.4871 100.92 32.3709C100.798 32.2367 100.705 32.079 100.646 31.9075C100.588 31.7359 100.565 31.5542 100.579 31.3735V26.1041C100.57 25.8584 100.611 25.6133 100.701 25.3844C100.791 25.1555 100.927 24.9477 101.101 24.7742C101.444 24.4314 102.101 24.1402 103.073 23.9005V31.3735ZM25.9343 8.72634C24.9051 7.86582 23.5945 7.41563 22.2538 7.46215C21.1763 7.47395 20.1137 7.71651 19.1378 8.1735C18.0888 8.64515 17.411 9.06526 17.1043 9.43382C16.6249 9.04722 16.0566 8.54077 15.4032 7.9686C14.8542 7.63097 13.9096 7.46215 12.5694 7.46215C11.6893 7.45555 10.8129 7.57666 9.9676 7.82169C9.30813 7.99034 8.6873 8.28436 8.13897 8.68768V7.62839H0.998427V39.2795L8.1351 32.1003V13.4004C8.12007 13.2247 8.14001 13.0478 8.19376 12.88C8.24751 12.7121 8.33401 12.5565 8.44825 12.4223C8.57532 12.3116 8.72312 12.2272 8.88306 12.1741C9.04301 12.121 9.21192 12.1002 9.37996 12.113C10.2099 12.113 10.6248 12.5601 10.6248 13.4545V36.8555C10.6248 36.8555 10.6248 39.2756 10.6248 39.2872L17.7576 32.108V13.4042C17.7423 13.228 17.7621 13.0504 17.8158 12.8819C17.8696 12.7133 17.9562 12.5571 18.0708 12.4223C18.1978 12.3116 18.3456 12.2272 18.5056 12.1741C18.6655 12.121 18.8344 12.1002 19.0025 12.113C19.8324 12.113 20.2473 12.5601 20.2473 13.4545V39.2679L27.3918 32.1196V11.6838C27.3864 11.1123 27.2519 10.5493 26.9981 10.0372C26.7444 9.52497 26.378 9.07685 25.9265 8.72634M46.1072 33.2408V13.6401C46.1072 11.3746 45.3533 9.74439 43.8455 8.74953C42.5723 7.89128 40.6677 7.46215 38.1316 7.46215C35.5955 7.46215 33.6225 7.85648 32.2127 8.64515C30.4627 9.64001 29.5877 11.2148 29.5877 13.3694V19.1685H36.5465V13.4583C36.5315 13.2655 36.5549 13.0715 36.6153 12.8877C36.6757 12.7039 36.7719 12.5339 36.8983 12.3875C37.0083 12.272 37.141 12.1805 37.288 12.1186C37.435 12.0568 37.5932 12.0259 37.7527 12.0279C37.9202 12.0166 38.0881 12.043 38.244 12.1052C38.3999 12.1675 38.5398 12.2639 38.6535 12.3875C38.8763 12.6995 38.983 13.0797 38.955 13.4622V17.7612C38.955 18.3772 37.3493 19.4571 34.138 21.001C30.9266 22.5448 29.3222 24.4778 29.3248 26.8V32.6686C29.3248 34.215 29.7706 35.3645 30.6624 36.1171C31.5542 36.8697 33.0748 37.2563 35.2243 37.2769C36.2362 37.3068 37.2478 37.2107 38.2359 36.9908C38.5741 36.9053 38.8898 36.7478 39.1614 36.5289C39.433 36.31 39.654 36.035 39.8094 35.7228V39.3027L46.1072 33.2408ZM38.9705 31.3735C38.985 31.5542 38.9622 31.7359 38.9037 31.9075C38.8452 32.079 38.7521 32.2367 38.6303 32.3709C38.5179 32.4815 38.3842 32.568 38.2373 32.6252C38.0904 32.6823 37.9334 32.709 37.7759 32.7034C37.602 32.7143 37.4277 32.6905 37.2631 32.6334C37.0985 32.5763 36.9469 32.4871 36.8171 32.3709C36.696 32.2362 36.6034 32.0784 36.545 31.907C36.4865 31.7356 36.4633 31.5541 36.4769 31.3735V26.1041C36.4672 25.8584 36.5086 25.6133 36.5984 25.3844C36.6883 25.1555 36.8246 24.9477 36.9988 24.7742C37.3442 24.4314 38.0014 24.1402 38.9705 23.9005V31.3735ZM48.3224 39.2756L55.4629 32.0964V0.824188H48.3379L48.3224 39.2756ZM64.9811 0.824188H57.856V6.05105H64.9966L64.9811 0.824188ZM84.6978 39.2756L91.8383 32.0964V7.62839H84.7171L84.6978 39.2756Z" fill="#635D5D"/>
<path fill-rule="evenodd" clip-rule="evenodd" d="M71.2015 39.5811L84.288 7.63613L66.6474 7.68252V13.6014H74.2905L63.5352 39.1133L63.3767 45.0979L63.2066 45.2757H63.3728L63.3651 45.4226L63.5893 45.2757L105.501 45.3028L110.89 39.5811H71.2015Z" fill="#ED7D22"/>
<path fill-rule="evenodd" clip-rule="evenodd" d="M5.48692 39.5811L0.12088 45.2757L57.856 45.3028L63.2453 39.5811H5.48692Z" fill="#ED7D22"/>
<path fill-rule="evenodd" clip-rule="evenodd" d="M35.6689 49.9884H25.6173V51.8248H34.6212C35.839 51.8248 36.6663 51.9369 37.0993 52.1534C37.3171 52.2683 37.4955 52.4456 37.6119 52.6625C37.7283 52.8795 37.7773 53.1262 37.7527 53.3712V54.1057C37.7792 54.3514 37.731 54.5994 37.6145 54.8173C37.4979 55.0352 37.3184 55.213 37.0993 55.3274C36.6638 55.5439 35.8339 55.6521 34.6096 55.6521H26.6997C25.4781 55.6521 24.6443 55.549 24.1984 55.3428C23.9773 55.236 23.7944 55.0637 23.6747 54.8492C23.5551 54.6348 23.5044 54.3887 23.5296 54.1444V53.9665L25.6482 53.7268V54.7784H35.6998V52.7874H26.6997C25.4935 52.7874 24.6701 52.683 24.2255 52.4665C24.0026 52.3535 23.8192 52.1754 23.6998 51.9559C23.5804 51.7363 23.5304 51.4857 23.5567 51.2371V50.6688C23.5285 50.4194 23.577 50.1674 23.6958 49.9463C23.8146 49.7253 23.9981 49.5457 24.2216 49.4317C24.6662 49.2191 25.4935 49.1147 26.692 49.1147H34.397C35.2226 49.0704 36.0495 49.1712 36.8403 49.4124C37.065 49.4968 37.2564 49.6515 37.386 49.8535C37.5156 50.0556 37.5764 50.2941 37.5594 50.5335V50.6727L35.6496 50.9394V49.9884" fill="#635D5D"/>
<path fill-rule="evenodd" clip-rule="evenodd" d="M43.5479 55.6521V49.1147H45.7902V55.6521H43.5479Z" fill="#635D5D"/>
<path fill-rule="evenodd" clip-rule="evenodd" d="M64.4785 49.9884H53.8392V54.7784H64.4669V52.8183H58.9965V51.9678H66.7285V54.0941C66.7534 54.342 66.7029 54.5916 66.5835 54.8102C66.4642 55.0289 66.2816 55.2064 66.0597 55.3196C65.6113 55.5361 64.7762 55.6444 63.5545 55.6444H54.7825C53.5609 55.6444 52.7258 55.5361 52.2773 55.3196C52.055 55.208 51.872 55.0313 51.7525 54.813C51.6331 54.5948 51.5828 54.3454 51.6085 54.098V50.6534C51.5837 50.4055 51.6342 50.1559 51.7535 49.9372C51.8729 49.7186 52.0554 49.541 52.2773 49.4278C52.7258 49.2165 53.5609 49.1095 54.7825 49.1069H63.5468C64.7324 49.1069 65.5584 49.2087 66.0249 49.4124C66.2477 49.5086 66.4346 49.6723 66.5594 49.8803C66.6843 50.0884 66.7407 50.3303 66.7208 50.5722V50.7384L64.4785 50.951V49.9884Z" fill="#635D5D"/>
<path fill-rule="evenodd" clip-rule="evenodd" d="M72.5392 55.6521V49.1147H73.9425L84.0599 53.4871C84.5955 53.7205 85.1125 53.9945 85.6063 54.3067C85.4506 53.7854 85.3801 53.2423 85.3976 52.6985V49.1147H87.4736V55.6521H86.2133L75.8021 51.1057L75.1449 50.8119C74.8917 50.6931 74.6541 50.5438 74.4374 50.3673C74.5585 50.8354 74.6144 51.3181 74.6036 51.8016V55.6676H72.5276" fill="#635D5D"/>
</svg>
