<svg width="72" height="72" viewBox="0 0 72 72" fill="none" xmlns="http://www.w3.org/2000/svg">
<path d="M25.1289 48.525C28.1031 50.7063 32.2296 45.604 35.9182 45.6231C39.6046 45.6401 43.6822 50.7828 46.6755 48.6313C49.6689 46.4777 46.093 40.9757 47.2495 37.4743C48.4061 33.9749 54.5565 31.6832 53.4361 28.1732C52.3136 24.6611 45.974 26.3619 43.0019 24.1785C40.0298 21.9973 39.7534 15.4408 36.067 15.4217C32.3806 15.4047 32.0383 21.959 29.0449 24.1105C26.0516 26.2619 19.729 24.5017 18.5724 28.001C17.418 31.5003 23.5451 33.8516 24.6676 37.3637C25.788 40.8758 22.1589 46.3438 25.131 48.525H25.1289ZM28.3816 57.4753C32.455 56.0722 34.6192 56.3847 35.4994 58.9465C36.3816 61.5062 33.7922 64.7185 29.7189 66.1195C25.6455 67.5226 21.8804 67.3122 21.2979 65.6157C20.7154 63.9191 24.3083 58.8785 28.3816 57.4753ZM17.1395 53.0533C20.9833 52.9407 22.7478 53.7804 22.818 56.1976C22.8903 58.6127 19.8331 60.6664 15.9873 60.7791C12.1435 60.8939 8.98859 59.7182 8.94182 58.1174C8.89292 56.5165 13.2958 53.1681 17.1395 53.0533ZM11.3569 44.2986C14.6628 45.1001 15.9703 46.229 15.4664 48.3082C14.9625 50.3853 11.8735 51.4206 8.56978 50.6212C5.2639 49.8198 2.84668 48.0786 3.18046 46.7031C3.51424 45.3255 8.05104 43.4971 11.3569 44.2986Z" fill="#F6801F"/>
<path d="M10.953 34.2068C13.8145 36.0479 14.6777 37.5446 13.5211 39.341C12.3646 41.1396 9.10763 41.1056 6.24608 39.2645C3.38666 37.4234 1.67526 34.9871 2.44061 33.7944C3.20595 32.6039 8.09354 32.3658 10.953 34.2068ZM11.3441 24.7399C13.2596 26.9339 13.6168 28.3689 12.237 29.5744C10.8594 30.7798 8.18708 29.9783 6.27159 27.7843C4.35397 25.5903 3.52485 23.1795 4.43901 22.3822C5.35318 21.585 9.42652 22.5459 11.3441 24.7399ZM14.9944 16.032C15.8788 18.8064 15.6322 20.2648 13.8889 20.8197C12.1435 21.3745 10.0133 19.576 9.12889 16.8016C8.24661 14.0251 8.44645 11.4824 9.60298 11.1146C10.7574 10.7468 14.11 13.2555 14.9944 16.032ZM21.0577 11.61C20.5517 13.787 19.8182 14.6522 18.4491 14.3355C17.08 14.0166 16.3805 11.9948 16.8865 9.81567C17.3925 7.63868 18.5214 6.03995 19.427 6.25043C20.3348 6.4609 21.5636 9.43299 21.0577 11.61ZM28.7622 10.479C26.987 11.8353 25.8687 12.0352 25.0162 10.919C24.1616 9.80291 24.9099 7.796 26.6872 6.43964C28.4645 5.08115 30.3524 4.56879 30.9179 5.30862C31.4834 6.04846 30.5395 9.12048 28.7622 10.479Z" fill="#15161A"/>
<path d="M43.6545 57.4733C39.5812 56.0723 37.4169 56.3848 36.5368 58.9466C35.6566 61.5062 38.2439 64.7185 42.3173 66.1196C46.3906 67.5227 50.1557 67.3122 50.7382 65.6157C51.3228 63.9192 47.7278 58.8764 43.6545 57.4733ZM54.8966 53.0534C51.0529 52.9407 49.2904 53.7805 49.2181 56.1977C49.1459 58.6128 52.2051 60.6665 56.0489 60.7791C59.8926 60.8939 63.0475 59.7183 63.0943 58.1174C63.1432 56.5166 58.7425 53.1682 54.8966 53.0534ZM60.6792 44.2987C57.3733 45.1002 56.0659 46.229 56.5697 48.3082C57.0736 50.3853 60.1626 51.4206 63.4685 50.6213C66.7744 49.8198 69.1894 48.0786 68.8557 46.7031C68.5219 45.3255 63.9872 43.4972 60.6792 44.2987Z" fill="#F6801F"/>
<path d="M61.0831 34.2068C58.2237 36.0479 57.3584 37.5445 58.5149 39.341C59.6736 41.1395 62.9306 41.1055 65.79 39.2644C68.6515 37.4234 70.3608 34.987 69.5955 33.7943C68.8301 32.6038 63.9447 32.3657 61.0831 34.2068ZM60.6919 24.7399C58.7764 26.9339 58.4193 28.3689 59.799 29.5743C61.1767 30.7797 63.849 29.9782 65.7645 27.7842C67.6821 25.5902 68.5112 23.1794 67.5992 22.3822C66.685 21.5849 62.6096 22.5459 60.6919 24.7399ZM57.0417 16.0319C56.1594 18.8063 56.4039 20.2647 58.1472 20.8196C59.8947 21.3745 62.0249 19.5759 62.9093 16.8015C63.7916 14.025 63.5896 11.4823 62.4352 11.1146C61.2787 10.7468 57.9261 13.2554 57.0417 16.0319ZM50.9805 11.6078C51.4865 13.7848 52.22 14.65 53.5891 14.3333C54.9582 14.0144 55.6577 11.9926 55.1517 9.81347C54.6457 7.63648 53.5168 6.03776 52.6111 6.24823C51.7034 6.4587 50.4746 9.43079 50.9805 11.6078ZM43.276 10.4768C45.0533 11.8331 46.1695 12.033 47.0241 10.9168C47.8766 9.80071 47.1283 7.7938 45.351 6.43744C43.5737 5.07895 41.6858 4.56659 41.1203 5.30643C40.5548 6.04626 41.4987 9.11828 43.276 10.4768Z" fill="#15161A"/>
</svg>
