<svg width="136" height="24" viewBox="0 0 136 24" fill="none" xmlns="http://www.w3.org/2000/svg">
<g clip-path="url(#clip0_32_358)">
<path d="M10.8851 0.778036C11.2976 -0.259346 12.7025 -0.259345 13.115 0.778038L15.5495 6.90085C15.7235 7.33819 16.1167 7.637 16.568 7.67485L22.8873 8.20479C23.9579 8.29457 24.3921 9.69221 23.5763 10.4231L18.7618 14.7371C18.4179 15.0453 18.2676 15.5288 18.3727 15.9895L19.8436 22.4398C20.0928 23.5327 18.9563 24.3965 18.0396 23.8109L12.6295 20.3542C12.243 20.1073 11.757 20.1073 11.3706 20.3542L5.9604 23.8109C5.04375 24.3965 3.90716 23.5327 4.15637 22.4398L5.62732 15.9895C5.73239 15.5288 5.5822 15.0453 5.23832 14.7371L0.423676 10.4231C-0.392062 9.69221 0.0420815 8.29457 1.11275 8.20479L7.43204 7.67485C7.88342 7.637 8.27661 7.33819 8.4505 6.90085L10.8851 0.778036Z" fill="#F6801F"/>
<path d="M66.8851 0.778036C67.2976 -0.259346 68.7025 -0.259345 69.115 0.778038L71.5495 6.90085C71.7235 7.33819 72.1167 7.637 72.568 7.67485L78.8873 8.20479C79.9579 8.29457 80.3921 9.69221 79.5763 10.4231L74.7618 14.7371C74.4179 15.0453 74.2676 15.5288 74.3727 15.9895L75.8436 22.4398C76.0928 23.5327 74.9563 24.3965 74.0396 23.8109L68.6295 20.3542C68.243 20.1073 67.757 20.1073 67.3706 20.3542L61.9604 23.8109C61.0437 24.3965 59.9072 23.5327 60.1564 22.4398L61.6273 15.9895C61.7324 15.5288 61.5822 15.0453 61.2383 14.7371L56.4237 10.4231C55.6079 9.69221 56.0421 8.29457 57.1128 8.20479L63.432 7.67485C63.8834 7.637 64.2766 7.33819 64.4505 6.90085L66.8851 0.778036Z" fill="#F6801F"/>
<path d="M94.8851 0.778036C95.2976 -0.259346 96.7025 -0.259345 97.115 0.778038L99.5495 6.90085C99.7235 7.33819 100.117 7.637 100.568 7.67485L106.887 8.20479C107.958 8.29457 108.392 9.69221 107.576 10.4231L102.762 14.7371C102.418 15.0453 102.268 15.5288 102.373 15.9895L103.844 22.4398C104.093 23.5327 102.956 24.3965 102.04 23.8109L96.6295 20.3542C96.243 20.1073 95.757 20.1073 95.3706 20.3542L89.9604 23.8109C89.0437 24.3965 87.9072 23.5327 88.1564 22.4398L89.6273 15.9895C89.7324 15.5288 89.5822 15.0453 89.2383 14.7371L84.4237 10.4231C83.6079 9.69221 84.0421 8.29457 85.1128 8.20479L91.432 7.67485C91.8834 7.637 92.2766 7.33819 92.4505 6.90085L94.8851 0.778036Z" fill="#F6801F"/>
<path d="M122.885 0.778036C123.298 -0.259346 124.702 -0.259345 125.115 0.778038L127.55 6.90085C127.724 7.33819 128.117 7.637 128.568 7.67485L134.887 8.20479C135.958 8.29457 136.392 9.69221 135.576 10.4231L130.762 14.7371C130.418 15.0453 130.268 15.5288 130.373 15.9895L131.844 22.4398C132.093 23.5327 130.956 24.3965 130.04 23.8109L124.629 20.3542C124.243 20.1073 123.757 20.1073 123.371 20.3542L117.96 23.8109C117.044 24.3965 115.907 23.5327 116.156 22.4398L117.627 15.9895C117.732 15.5288 117.582 15.0453 117.238 14.7371L112.424 10.4231C111.608 9.69221 112.042 8.29457 113.113 8.20479L119.432 7.67485C119.883 7.637 120.277 7.33819 120.451 6.90085L122.885 0.778036Z" fill="#F6801F"/>
<path d="M38.8851 0.778036C39.2976 -0.259346 40.7025 -0.259345 41.115 0.778038L43.5495 6.90085C43.7235 7.33819 44.1167 7.637 44.568 7.67485L50.8873 8.20479C51.9579 8.29457 52.3921 9.69221 51.5763 10.4231L46.7618 14.7371C46.4179 15.0453 46.2676 15.5288 46.3727 15.9895L47.8436 22.4398C48.0928 23.5327 46.9563 24.3965 46.0396 23.8109L40.6295 20.3542C40.243 20.1073 39.757 20.1073 39.3706 20.3542L33.9604 23.8109C33.0437 24.3965 31.9072 23.5327 32.1564 22.4398L33.6273 15.9895C33.7324 15.5288 33.5822 15.0453 33.2383 14.7371L28.4237 10.4231C27.6079 9.69221 28.0421 8.29457 29.1128 8.20479L35.432 7.67485C35.8834 7.637 36.2766 7.33819 36.4505 6.90085L38.8851 0.778036Z" fill="#F6801F"/>
</g>
<defs>
<clipPath id="clip0_32_358">
<rect width="136" height="24" fill="white"/>
</clipPath>
</defs>
</svg>
